<?xml version="1.0" standalone="no"?>
<!DOCTYPE svg PUBLIC "-//W3C//DTD SVG 20010904//EN"
 "http://www.w3.org/TR/2001/REC-SVG-20010904/DTD/svg10.dtd">
<svg version="1.0" xmlns="http://www.w3.org/2000/svg"
 width="150.000000pt" height="150.000000pt" viewBox="0 0 150.000000 150.000000"
 preserveAspectRatio="xMidYMid meet">
<metadata>
Created by potrace 1.14, written by Peter Selinger 2001-2017
</metadata>
<g transform="translate(0.000000,150.000000) scale(0.100000,-0.100000)"
fill="#000000" stroke="none">
<path d="M582 1325 c-17 -14 -34 -25 -40 -25 -24 0 -102 -40 -136 -71 -76 -66
-97 -163 -49 -228 28 -37 44 -33 60 16 8 24 34 64 58 90 l44 48 -1 -100 c0
-55 -3 -161 -7 -235 l-6 -135 -35 0 c-34 0 -35 -1 -32 -35 4 -51 9 -60 36 -60
l25 0 0 -173 c-1 -100 4 -184 10 -200 13 -33 46 -36 110 -7 42 20 43 21 37 58
-3 20 -9 100 -12 177 l-7 140 63 13 c34 7 64 11 67 8 3 -3 27 -68 54 -145 59
-172 87 -229 134 -269 45 -40 118 -47 177 -16 29 15 38 44 14 44 -23 0 -100
76 -135 134 -18 31 -55 113 -82 183 l-49 128 49 45 c63 58 89 98 112 172 39
124 18 243 -57 327 -64 71 -135 104 -240 109 -63 3 -84 8 -84 18 0 23 -46 16
-78 -11z m203 -149 c87 -41 125 -103 125 -203 0 -89 -16 -129 -73 -188 -40
-41 -65 -57 -106 -69 -94 -28 -91 -30 -91 82 0 55 3 167 7 250 l6 152 41 0
c23 0 64 -11 91 -24z"/>
</g>
</svg>
